<?xml version="1.0" encoding="utf-8"?>
<!-- Generator: Adobe Illustrator 24.3.0, SVG Export Plug-In . SVG Version: 6.00 Build 0)  -->
<svg version="1.1" id="Layer_1" xmlns="http://www.w3.org/2000/svg" xmlns:xlink="http://www.w3.org/1999/xlink" x="0px" y="0px"
	 viewBox="0 0 1194.7 425.3" style="enable-background:new 0 0 1194.7 425.3;" xml:space="preserve">
<style type="text/css">
	.st0{fill:url(#SVGID_1_);}
	.st1{fill:url(#SVGID_2_);}
	.st2{fill:url(#SVGID_3_);}
</style>
<g id="Layer_copy_9">
	<g>
		
			<linearGradient id="SVGID_1_" gradientUnits="userSpaceOnUse" x1="54.949" y1="129.7038" x2="371.5913" y2="298.0655" gradientTransform="matrix(1 0 0 1 -2 -2)">
			<stop  offset="0" style="stop-color:#FFAAD0"/>
			<stop  offset="1" style="stop-color:#9BDCFF"/>
		</linearGradient>
		<path class="st0" d="M290.6,230.4c-0.6-0.8-2-2.5-4.1-5.2c-2.2-2.7-3.7-4.7-4.7-6.1c-1-1.4-2.3-3.4-4-6.1c-1.7-2.6-2.8-5-3.3-7
			c-0.5-2-0.8-4.4-1.1-7c-0.2-2.6,0.2-5.3,1.3-7.9c1.1-2.6,2.6-5.3,4.6-8L221.5,225c2.9-0.7,5.6-1,8.3-1c2.7,0,5,0.2,7.1,0.6
			c2.1,0.4,4.2,1.2,6.4,2.6c2.2,1.4,4,2.6,5.4,3.5c1.4,1,3,2.5,5,4.7c2,2.2,3.3,3.7,4.1,4.7c0.8,1,2,2.7,3.8,5
			c1.8,2.3,2.8,3.7,3.1,4.1l42.8,56.3c1.4,1.8,2.6,3.5,3.7,5c1.1,1.5,2.3,3.5,3.6,6c1.3,2.4,2.4,4.7,3.3,6.8
			c0.9,2.1,1.6,4.5,2.2,7.3c0.6,2.8,0.9,5.5,0.7,8c-0.2,2.5-0.7,5.3-1.5,8.2c-0.8,2.9-2.2,5.8-4.1,8.6
			c15.5-14.4,24.6-26.4,27.4-36.3c2.8-9.8-0.3-20.6-9.3-32.4L290.6,230.4z M393.4,160.3c-9.5-13.8-21.6-26-28.1-41.6
			c-6.9,4.6-14.1,9-19.5,15.4c-5.4,7.9-1.1,17.7,4.4,24.3c10.5,14,21.8,27.4,32.2,41.5c3.6,4.2,3.8,9.8,4.1,15
			c8.6-8.2,23.2-13.6,23.2-27.4C407.9,176.7,399.3,168.9,393.4,160.3z M296.4,184.8c6.1,12.9,18.6,21.9,22.6,36
			c9.7-6.4,24.4-13.7,21.9-27.6c-6-13.8-18.7-23.7-23.1-38.4C307.4,161.4,292.4,170.1,296.4,184.8z M365.6,214.3
			c-6,4.2-12,8.3-17.2,13.5c-7.1,6.1-6,17.9-0.3,24.6c7.1,8.7,14.5,17.3,18.5,27.9c9.8-5.8,25-13.6,21.2-27.4
			C382.3,239,368.9,229.4,365.6,214.3z M197.8,289.1c2.6-2.3,4.6-3.9,5.9-4.9c1.4-1,3.3-2.4,5.9-4.2c2.6-1.8,4.9-3,6.9-3.6
			c2-0.6,4.3-1,7-1.4c2.6-0.3,5.3,0,8,0.9c2.7,0.9,5.4,2.3,8.2,4.2l-44.5-55.9c0.8,2.8,1.3,5.6,1.4,8.2c0.1,2.6,0,5-0.2,7.1
			c-0.3,2.1-1.1,4.3-2.4,6.6c-1.3,2.3-2.4,4.1-3.3,5.5c-0.9,1.4-2.4,3.1-4.4,5.2c-2.1,2-3.6,3.5-4.5,4.3c-1,0.8-2.6,2.1-4.8,4
			c-2.3,1.9-3.6,3-4,3.3l-54.4,45.3c-1.7,1.4-3.4,2.7-4.9,3.9c-1.5,1.1-3.4,2.4-5.8,3.9c-2.4,1.4-4.6,2.6-6.7,3.6
			c-2.1,0.9-4.5,1.8-7.2,2.6c-2.8,0.8-5.4,1.1-8,1c-2.5-0.1-5.3-0.5-8.3-1.2c-3-0.7-5.9-1.9-8.7-3.7c15,14.8,27.5,23.4,37.5,25.8
			c9.9,2.3,20.6-1.2,32-10.7l54.4-45.3C193.5,292.8,195.2,291.4,197.8,289.1z M291.5,344.5c-8.1-5.1-17.7-0.3-24,5.4
			c-13.6,11.1-26.4,23-40.1,34c-4,3.8-9.6,4.2-14.8,4.7c8.6,8.2,14.6,22.6,28.4,22c10.6-2.3,18-11.3,26.4-17.5
			c13.3-10.1,25-22.7,40.4-29.9C302.9,356.5,298.1,349.6,291.5,344.5z M232.1,340.6c13.5-6.6,22.8-19.7,37.3-24.7
			c-7.1-10.1-16.5-24.7-30.9-20.1c-12.6,6.7-21,19.6-35,24.2C210.4,329.3,218.3,343.8,232.1,340.6z M196.4,349.6
			c-6.5-6.8-18.1-5.2-24.6,0.8c-8.4,7.4-16.7,15.2-27.1,19.7c6.2,9.5,14.6,24.4,28.3,20c13.7-6,22.7-19.9,37.7-23.9
			C206.2,360.4,201.8,354.5,196.4,349.6z M132,192.5c0.6,0.8,2,2.5,4.3,5.1c2.2,2.6,3.8,4.7,4.8,6c1,1.4,2.4,3.4,4.1,6
			c1.8,2.6,2.9,4.9,3.4,7c0.5,2,1,4.4,1.2,7c0.3,2.6-0.1,5.3-1.1,7.9c-1,2.7-2.5,5.3-4.4,8.1l56.8-43.3c-2.8,0.7-5.6,1.1-8.2,1.2
			c-2.6,0-5-0.1-7.1-0.4c-2.1-0.3-4.2-1.1-6.5-2.5c-2.3-1.4-4.1-2.5-5.5-3.4c-1.4-0.9-3.1-2.4-5.1-4.5c-2-2.1-3.4-3.6-4.2-4.6
			c-0.8-1-2.1-2.6-3.9-4.9c-1.8-2.3-2.9-3.7-3.2-4l-44.1-55.3c-1.4-1.8-2.7-3.4-3.8-4.9c-1.1-1.5-2.4-3.5-3.7-5.9
			c-1.4-2.4-2.5-4.7-3.4-6.7c-0.9-2.1-1.7-4.5-2.4-7.3c-0.7-2.8-1-5.4-0.9-8c0.1-2.5,0.6-5.3,1.3-8.2c0.8-3,2.1-5.8,3.9-8.7
			c-15.2,14.7-24,27-26.5,36.9c-2.5,9.9,0.8,20.6,10,32.2L132,192.5z M77.5,290.2c5.2-8,0.7-17.7-4.9-24.1
			c-10.8-13.8-22.5-26.9-33.2-40.8c-3.7-4.1-4-9.7-4.4-14.9c-8.4,8.4-22.9,14.1-22.6,27.9c2.1,10.7,10.9,18.2,17,26.7
			c9.9,13.5,22.2,25.5,29.1,41C65.2,301.3,72.2,296.7,77.5,290.2z M82.5,230.9c6.3,13.6,19.3,23.2,24,37.8
			c10.2-6.9,25-15.9,20.7-30.5c-6.4-12.7-19.1-21.4-23.4-35.5C94.3,209.5,79.7,217.1,82.5,230.9z M57.4,210.4
			c5.9-4.3,11.8-8.6,16.9-13.9c7-6.3,5.5-18-0.3-24.6c-7.3-8.5-14.9-17-19.1-27.5c-9.6,6-24.7,14.1-20.6,27.8
			C40.1,186.1,53.7,195.4,57.4,210.4z M225.8,138.4c-2.7,2.2-4.7,3.8-6.1,4.8c-1.4,1-3.4,2.3-6,4.1c-2.6,1.7-4.9,2.9-7,3.4
			c-2,0.5-4.4,0.9-7,1.2c-2.6,0.3-5.3-0.1-7.9-1.1c-2.6-1-5.3-2.5-8-4.4l43,57c-0.7-2.8-1.1-5.6-1.2-8.2c0-2.7,0.1-5,0.4-7.1
			c0.3-2.1,1.2-4.2,2.5-6.5c1.4-2.3,2.5-4.1,3.4-5.4c0.9-1.4,2.4-3.1,4.6-5c2.1-2,3.7-3.4,4.6-4.1c1-0.8,2.6-2.1,5-3.9
			c2.3-1.8,3.7-2.9,4.1-3.2l55.6-43.8c1.8-1.4,3.4-2.6,5-3.7c1.5-1.1,3.5-2.3,5.9-3.7c2.4-1.4,4.7-2.5,6.7-3.4
			c2.1-0.9,4.5-1.7,7.3-2.4c2.8-0.7,5.4-1,8-0.8c2.5,0.1,5.3,0.6,8.2,1.4c2.9,0.8,5.8,2.1,8.6,4c-14.6-15.2-26.9-24.2-36.8-26.7
			c-9.9-2.6-20.6,0.7-32.3,9.9l-55.6,43.8C230.2,134.8,228.4,136.2,225.8,138.4z M133.8,77.3c7.8,5.4,17.7,1.1,24.3-4.3
			c14.1-10.5,27.5-21.8,41.6-32.1c4.2-3.6,9.8-3.8,15-4c-8.2-8.6-13.5-23.2-27.3-23.3c-10.7,1.8-18.5,10.4-27.2,16.2
			c-13.8,9.5-26.1,21.5-41.7,28C123,64.7,127.5,71.9,133.8,77.3z M191.5,83.9c-13.8,5.9-23.7,18.6-38.5,22.9
			c6.6,10.4,15.3,25.4,29.9,21.5c12.9-6.1,21.9-18.5,36.1-22.5C212.6,96.2,205.4,81.4,191.5,83.9z M253.7,75.4
			c8.7-7,17.4-14.4,28-18.4c-5.8-9.8-13.5-25.1-27.3-21.3c-14,5.4-23.7,18.8-38.8,22.1c4.2,6,8.3,12,13.4,17.2
			C235.2,82.2,246.9,81.1,253.7,75.4z"/>
	</g>
</g>
<g>
	<g id="JooN">
		<g>
			
				<linearGradient id="SVGID_2_" gradientUnits="userSpaceOnUse" x1="363.6764" y1="210.8188" x2="1094.3334" y2="210.8188" gradientTransform="matrix(1 0 0 1 -2 0)">
				<stop  offset="0" style="stop-color:#91CFFF"/>
				<stop  offset="5.589616e-02" style="stop-color:#9DD0FE"/>
				<stop  offset="0.2387" style="stop-color:#C0D2F9"/>
				<stop  offset="0.4244" style="stop-color:#DBD4F6"/>
				<stop  offset="0.6119" style="stop-color:#EFD6F4"/>
				<stop  offset="0.8023" style="stop-color:#FAD7F2"/>
				<stop  offset="1" style="stop-color:#FED7F2"/>
			</linearGradient>
			<path class="st1" d="M486.8,122.5c1.9,5,2.9,10.1,2.9,15.3v111.4c0,7.6-0.5,16.1-1.3,25.5c-0.9,9.4-2.8,18.5-5.7,27.2
				c-2.9,8.7-6.9,16.6-12.1,23.5c-5.1,6.9-12.1,11.7-20.8,14.4v1.7c4.5-1.1,9-2.7,13.4-4.7c4.5-2,8.6-4.3,12.4-6.7
				c14.5-9,26.1-20.4,34.6-34.2c8.5-13.9,12.8-29.4,12.8-46.7V137.8c0-5.1,0.9-10.2,2.9-15.3c1.9-5,5.8-8.4,11.6-10.2h-62.1
				C481,114.1,484.9,117.5,486.8,122.5z M700.2,136c-7.5-7.5-16.3-13.4-26.3-17.8c-10.1-4.4-20.8-6.5-32.2-6.5
				c-11.4,0-22.2,2.2-32.2,6.5c-10.1,4.4-18.9,10.3-26.3,17.8c-7.5,7.5-13.4,16.3-17.8,26.3c-4.4,10.1-6.5,20.8-6.5,32.2
				c0,11.4,2.2,22.2,6.5,32.2c4.4,10.1,10.3,18.9,17.8,26.3c7.5,7.5,16.3,13.4,26.3,17.8c10.1,4.4,20.8,6.5,32.2,6.5
				c11.4,0,22.2-2.2,32.2-6.5c10.1-4.4,18.8-10.3,26.3-17.8c7.5-7.5,13.4-16.3,17.8-26.3c4.4-10.1,6.5-20.8,6.5-32.2
				c0-11.4-2.2-22.2-6.5-32.2C713.6,152.3,707.7,143.5,700.2,136z M687.3,221.1c-1.6,8.7-4,17.1-7.4,25c-3.4,7.9-7.8,14.7-13.4,20.3
				c-5.6,5.6-12.4,8.4-20.5,8.4c-8.3,0-15.6-3.1-21.8-9.4c-6.3-6.3-11.5-13.8-15.6-22.7c-4.1-8.8-7.2-18.1-9.2-27.7
				c-2-9.6-3-17.8-3-24.5c0-5.8,0.7-13,2.2-21.6c1.5-8.6,3.9-16.9,7.2-25c3.4-8.1,7.7-15,12.9-20.8c5.3-5.8,11.7-8.7,19.3-8.7
				c9.2,0,17.1,3,23.7,9.1c6.6,6,12,13.4,16.1,22.2c4.1,8.7,7.2,17.9,9.1,27.5c1.9,9.6,2.9,18.1,2.9,25.5
				C689.6,204.8,688.9,212.3,687.3,221.1z M889.5,136c-7.5-7.5-16.3-13.4-26.3-17.8c-10.1-4.4-20.8-6.5-32.2-6.5
				c-11.4,0-22.2,2.2-32.2,6.5c-10.1,4.4-18.9,10.3-26.3,17.8c-7.5,7.5-13.4,16.3-17.8,26.3c-4.4,10.1-6.5,20.8-6.5,32.2
				c0,11.4,2.2,22.2,6.5,32.2c4.4,10.1,10.3,18.9,17.8,26.3c7.5,7.5,16.3,13.4,26.3,17.8c10.1,4.4,20.8,6.5,32.2,6.5
				c11.4,0,22.2-2.2,32.2-6.5c10.1-4.4,18.8-10.3,26.3-17.8c7.5-7.5,13.4-16.3,17.8-26.3c4.4-10.1,6.5-20.8,6.5-32.2
				c0-11.4-2.2-22.2-6.5-32.2C902.9,152.3,897,143.5,889.5,136z M876.6,221.1c-1.6,8.7-4,17.1-7.4,25c-3.4,7.9-7.8,14.7-13.4,20.3
				c-5.6,5.6-12.4,8.4-20.5,8.4c-8.3,0-15.6-3.1-21.8-9.4c-6.3-6.3-11.5-13.8-15.6-22.7c-4.1-8.8-7.2-18.1-9.2-27.7
				c-2-9.6-3-17.8-3-24.5c0-5.8,0.7-13,2.2-21.6c1.5-8.6,3.9-16.9,7.2-25c3.4-8.1,7.7-15,12.9-20.8c5.3-5.8,11.7-8.7,19.3-8.7
				c9.2,0,17.1,3,23.7,9.1c6.6,6,12,13.4,16.1,22.2c4.1,8.7,7.2,17.9,9.1,27.5c1.9,9.6,2.9,18.1,2.9,25.5
				C878.9,204.8,878.2,212.3,876.6,221.1z M1179.3,340.5c-3.1,0.4-6.1,0.7-8.9,0.8c-2.8,0.1-5.8,0.2-8.9,0.2
				c-11.2,0-21.4-2.9-30.7-8.7c-9.3-5.8-17.7-13.1-25.2-22c-7.5-8.8-14.2-18.3-20-28.5c-5.8-10.2-10.9-19.6-15.1-28.4V147.9
				c0-8.5,2-15.9,5.9-22.3c3.9-6.4,10-10.9,18.3-13.6h-52.4c7.6,2.2,13.2,5.5,16.8,9.9c3.6,4.4,6,9.2,7.4,14.6
				c1.3,5.4,2,11.2,1.8,17.5c-0.1,6.3-0.2,12.6-0.2,19.1v18.8l-0.3,38.3v18.8c-6.3-13.4-12.6-27-19.1-40.8
				c-6.5-13.8-13.6-27-21.3-39.6c-7.7-12.6-16.2-24.6-25.3-35.7c-9.2-11.2-19.5-20.9-30.9-29c-11.4-8.2-24.1-14.7-37.9-19.5
				c-13.9-4.8-29.4-7.2-46.7-7.2c-12.5,0-25.3,1.6-38.3,4.7l1.3,2.3c5.4-1.1,10.8-2.1,16.3-2.9c5.5-0.8,11-1.2,16.6-1.2
				c16.3,0,30.9,4.3,43.6,12.8c12.8,8.5,23.9,19,33.6,31.5v116.8c0,8.5-2,15.9-6,22.3c-4,6.4-10.2,10.8-18.5,13.3H988
				c-8.3-2.5-14.7-6.9-19.1-13.3c-4.5-6.4-6.7-13.8-6.7-22.3l0.3-113.4c9.2,12.1,17.8,25.9,26,41.4c8.2,15.6,16.6,31.3,25.3,47.3
				c8.7,16,17.9,31.7,27.5,47c9.6,15.3,20.4,29,32.2,41.1c11.9,12.1,25.1,21.8,39.8,29c14.7,7.3,31.3,10.9,49.8,10.9
				c2.9,0,5.8-0.1,8.6-0.2c2.8-0.1,5.6-0.3,8.6-0.5L1179.3,340.5z"/>
		</g>
	</g>
	<g id="Beauty">
		<g>
			
				<linearGradient id="SVGID_3_" gradientUnits="userSpaceOnUse" x1="512.2663" y1="324.3534" x2="863.4741" y2="324.3534" gradientTransform="matrix(1 0 0 1 -2 0)">
				<stop  offset="0" style="stop-color:#91CFFF"/>
				<stop  offset="2.020425e-02" style="stop-color:#95CFFE"/>
				<stop  offset="0.222" style="stop-color:#BBD2FA"/>
				<stop  offset="0.4233" style="stop-color:#D8D4F7"/>
				<stop  offset="0.6216" style="stop-color:#EDD6F4"/>
				<stop  offset="0.8155" style="stop-color:#FAD7F3"/>
				<stop  offset="1" style="stop-color:#FED7F2"/>
			</linearGradient>
			<path class="st2" d="M625,323.5c3.3-0.9,5.8-4.1,5.8-8c0-7.4-6-10.2-14-10.2h-14.5v37.5h15.4c8.5,0,14-3.2,14-10.7
				C631.7,327.7,628.6,324.5,625,323.5z M608.3,311h8.2c4.2,0,7.9,0.7,7.9,5c0,4.5-3.7,5.1-7.9,5.1h-8.3V311z M617.4,337.1h-9.1
				v-10.4h9.1c4.8,0,7.9,0.9,7.9,5.1C625.3,336.2,622.1,337.1,617.4,337.1z M672.9,326.7H693V321h-20.2V311h20.9v-5.7h-27v37.5h27.3
				v-5.7h-21.3V326.7z M740.8,305.3L726,342.7h6.3l3.7-9.6h17l3.7,9.6h6.5l-14.8-37.5H740.8z M738.2,327.5l6.3-16.2l6.3,16.2H738.2z
				 M821.2,327.5c0,7.1-4,10.1-9.8,10.1c-5.8,0-9.8-2.9-9.8-10.1v-22.2h-6V328c0,10.4,7,15.4,15.9,15.4c8.9,0,15.9-5,15.9-15.4
				v-22.7h-6V327.5z M859.9,311H872v31.7h6V311h12.1v-5.7h-30.3V311z M946.4,305.3L936,322.1l-10.4-16.8h-7.2l14.6,22.2v15.3h6
				v-15.2l14.4-22.3H946.4z"/>
		</g>
	</g>
</g>
</svg>
